<?xml version="1.0" standalone="no"?>
<!DOCTYPE svg PUBLIC "-//W3C//DTD SVG 20010904//EN"
 "http://www.w3.org/TR/2001/REC-SVG-20010904/DTD/svg10.dtd">
<svg version="1.0" xmlns="http://www.w3.org/2000/svg"
 width="300.000000pt" height="120.000000pt" viewBox="0 0 300.000000 120.000000"
 preserveAspectRatio="xMidYMid meet">

<g transform="translate(0.000000,120.000000) scale(0.100000,-0.100000)"
fill="#000000" stroke="none">
<path d="M986 899 c-94 -26 -114 -150 -32 -200 85 -52 190 19 172 116 -11 59
-80 100 -140 84z"/>
<path d="M1914 866 c-28 -28 -34 -42 -34 -76 0 -34 6 -48 34 -76 40 -40 92
-46 142 -15 95 58 47 201 -66 201 -34 0 -48 -6 -76 -34z"/>
<path d="M1397 772 c-48 -48 -84 -91 -81 -95 4 -4 92 -7 196 -7 148 0 189 3
186 13 -6 23 -175 177 -194 177 -11 0 -58 -38 -107 -88z"/>
<path d="M372 298 l3 -173 25 0 c25 0 25 2 28 88 3 80 5 88 27 103 33 21 73
11 85 -22 6 -14 10 -59 10 -100 0 -72 1 -74 25 -74 25 0 25 1 25 80 0 43 -5
90 -11 103 -16 35 -54 52 -111 51 l-48 0 0 58 c0 58 0 58 -30 58 l-30 0 2
-172z"/>
<path d="M645 449 c-10 -30 18 -58 43 -43 9 6 17 22 17 35 0 34 -50 41 -60 8z"/>
<path d="M192 344 c-22 -15 -29 -57 -14 -81 4 -7 29 -22 55 -33 53 -24 66 -42
46 -66 -10 -12 -25 -15 -61 -12 -63 7 -67 -18 -5 -27 58 -9 112 13 121 49 10
39 -9 64 -70 91 -57 25 -68 47 -34 65 20 11 66 4 88 -13 8 -7 12 -5 12 6 0 36
-96 51 -138 21z"/>
<path d="M650 245 l0 -115 30 0 30 0 0 115 0 115 -30 0 -30 0 0 -115z"/>
<path d="M812 345 c-43 -19 -62 -65 -62 -150 l0 -65 30 0 30 0 0 85 c0 79 2
86 25 101 33 21 73 11 85 -22 6 -14 10 -57 10 -95 0 -67 1 -69 25 -69 24 0 25
2 25 64 0 82 15 124 47 132 60 16 83 -22 83 -137 0 -56 1 -59 25 -59 24 0 25
2 25 75 0 47 -6 87 -15 104 -24 47 -103 65 -157 37 -23 -12 -32 -12 -65 0 -48
17 -70 17 -111 -1z"/>
<path d="M1265 351 c-76 -31 -86 -173 -16 -211 30 -15 97 -12 115 6 15 14 16
14 16 0 0 -11 9 -16 30 -16 l30 0 0 65 c0 87 -19 132 -64 150 -39 16 -80 18
-111 6z m97 -38 c25 -22 25 -102 0 -133 -21 -26 -66 -30 -89 -7 -22 22 -20
112 2 137 22 24 62 26 87 3z"/>
<path d="M1570 353 c-39 -12 -63 -30 -76 -55 -30 -58 -8 -135 44 -157 35 -15
104 -11 109 6 3 8 -6 10 -31 6 -28 -4 -39 -1 -60 20 -47 47 -37 57 59 57 l85
0 0 31 c0 33 -46 89 -73 89 -9 0 -21 2 -29 4 -7 3 -20 2 -28 -1z m55 -48 c38
-37 31 -45 -35 -45 -33 0 -60 4 -60 9 0 16 41 61 56 61 8 0 26 -11 39 -25z"/>
<path d="M1802 345 c-43 -19 -62 -65 -62 -150 l0 -65 30 0 30 0 0 84 c0 76 2
86 22 100 30 21 54 20 78 -4 17 -17 20 -33 20 -100 0 -79 0 -80 25 -80 24 0
25 2 25 75 0 96 -16 130 -68 144 -48 14 -60 13 -100 -4z"/>
<path d="M2072 345 c-64 -29 -79 -139 -26 -192 29 -29 107 -33 136 -6 17 15
18 15 18 0 0 -11 8 -17 25 -17 25 0 25 1 25 80 0 73 -2 82 -28 111 -33 37 -98
48 -150 24z m92 -21 c25 -10 39 -67 27 -112 -13 -45 -47 -67 -85 -53 -28 11
-36 29 -36 87 0 65 40 99 94 78z"/>
<path d="M2355 341 c-45 -20 -65 -53 -65 -108 0 -29 8 -43 40 -74 33 -32 37
-39 25 -49 -8 -7 -15 -28 -15 -46 0 -30 3 -34 25 -34 22 0 25 4 25 34 0 40 12
52 65 61 56 10 72 21 91 57 34 66 -2 148 -75 168 -50 14 -70 12 -116 -9z m119
-32 c22 -17 26 -29 26 -68 0 -69 -43 -101 -106 -81 -27 9 -36 20 -45 50 -27
90 54 154 125 99z"/>
<path d="M2653 345 c-41 -17 -53 -42 -53 -105 0 -44 5 -56 29 -81 23 -23 38
-29 72 -29 25 0 50 7 61 17 17 15 18 15 18 0 0 -11 8 -17 25 -17 24 0 25 2 25
75 0 47 -6 87 -15 104 -24 47 -99 64 -162 36z m101 -28 c41 -30 24 -155 -22
-158 -55 -4 -82 24 -82 87 0 69 55 107 104 71z"/>
</g>
</svg>
